<?xml version="1.0" encoding="utf-8"?>
<!-- Generator: Adobe Illustrator 19.2.0, SVG Export Plug-In . SVG Version: 6.00 Build 0)  -->
<svg version="1.1" id="Ebene_1" xmlns="http://www.w3.org/2000/svg" xmlns:xlink="http://www.w3.org/1999/xlink" x="0px" y="0px"
	 viewBox="0 0 792.4 282.2" style="enable-background:new 0 0 792.4 282.2;" xml:space="preserve">
<style type="text/css">
	.st0{fill:url(#SVGID_1_);}
	.st1{fill:url(#SVGID_2_);}
	.st2{fill:url(#SVGID_3_);}
	.st3{fill:#265DA5;}
	.st4{fill:#808080;}
</style>
<g>
	
		<linearGradient id="SVGID_1_" gradientUnits="userSpaceOnUse" x1="30.2629" y1="274.1616" x2="30.2629" y2="74.1145" gradientTransform="matrix(1 0 0 -1 0 286.2794)">
		<stop  offset="1.507434e-02" style="stop-color:#265DA5"/>
		<stop  offset="0.9927" style="stop-color:#0C2C53"/>
	</linearGradient>
	<path class="st0" d="M19.2,110.1c0-37.1,15.1-70.7,39.4-94.9c0,0,4-6.3-1.9-12.2S45,1.7,45,1.7C17.2,29.4,0,67.8,0,110.2
		c0,42.3,17.1,80.6,44.8,108.3c0,0,5.2,5.7,12.3-0.8c6.9-6.2,1.2-12.8,1.2-12.8C34.2,180.6,19.2,147.1,19.2,110.1z"/>
	
		<linearGradient id="SVGID_2_" gradientUnits="userSpaceOnUse" x1="63.2204" y1="274.1616" x2="63.2204" y2="74.1145" gradientTransform="matrix(1 0 0 -1 0 286.2794)">
		<stop  offset="1.507434e-02" style="stop-color:#265DA5"/>
		<stop  offset="0.9927" style="stop-color:#0C2C53"/>
	</linearGradient>
	<path class="st1" d="M57.5,110.1c0-26.5,10.8-50.5,28.2-67.9c0,0,5.7-6.6-0.8-13.7c-5.4-5.8-12.7,0.1-12.7,0.1
		c-20.9,20.9-33.8,49.7-33.8,81.5c0,31.7,12.9,60.4,33.6,81.2c0,0,6.4,5.4,12.5-0.7c6.1-6.1,1.1-12.8,1.1-12.8
		C68.2,160.5,57.5,136.5,57.5,110.1z"/>
	
		<linearGradient id="SVGID_3_" gradientUnits="userSpaceOnUse" x1="95.7741" y1="274.1616" x2="95.7741" y2="74.1145" gradientTransform="matrix(1 0 0 -1 0 286.2794)">
		<stop  offset="1.507434e-02" style="stop-color:#265DA5"/>
		<stop  offset="0.9927" style="stop-color:#0C2C53"/>
	</linearGradient>
	<path class="st2" d="M95.8,110.1c0-16,6.5-30.4,17-40.8c0,0,5.4-7.4-1.1-13.9c-6.5-6.5-12.5,0.3-12.5,0.3
		c-14,13.9-22.6,33.1-22.6,54.3c0,21.1,8.6,40.3,22.4,54.1c0,0,7.4,4.2,13-1c6.2-5.8,0.5-12.5,0.5-12.5
		C102.3,140.3,95.8,126,95.8,110.1z"/>
	<g>
		<path class="st3" d="M257.1,236.2l-0.3,0.4c-0.4,0.2-0.5,0.6-0.5,1.2c-6.2,4.7-11.2,7.1-14.9,7.5c-2.1,0.1-4.2-0.3-6.2-1.2
			c-1.7-0.9-2.9-2.2-3.5-3.7c-0.5-1.2-0.9-3.3-1.2-6.2c2.4-12.3,8.2-21.9,17.5-28.8c0.3-0.1,1.2-0.2,2.7-0.5c1.2-0.2,2.3,0,3.1,0.7
			c0.8,0.7,1.2,1.7,1.2,2.9c-0.2,1-0.3,2-0.3,2.9c-1.3,4.5-5.8,9.7-13.5,15.6c-0.5,0.4-1.7,0.8-3.8,1.2c-1.2,0.2-1.8,0.9-1.7,2.1
			c-1,1.7-1.4,3.3-1.3,4.8c0,0.6,0.3,1.8,0.9,3.5c1.3,1.9,3.5,2.8,6.4,2.8l0.5-0.3c1.2,0,3-0.4,5.1-1.3c2.2-1.3,5.6-3.2,10.4-5.6
			c0.1,0.3,0.1,0.6,0.1,0.8C257.7,235.4,257.5,235.8,257.1,236.2z M250.4,210.8c-0.2-0.2-0.5-0.5-0.8-0.7
			c-4.1,2.6-7.7,6.8-10.7,12.8c0.4,0,0.8-0.2,1.3-0.5c1.9-1.8,3.9-3.6,5.8-5.4C248.2,214.7,249.7,212.6,250.4,210.8z"/>
		<path class="st3" d="M268.9,237.3c-0.7,1.2-1.9,2.8-3.5,5c-3,1.9-5.2,2.8-6.6,2.7c-1.4-0.1-3-1.2-4.7-3.5
			c-0.2-1.4-0.2-2.8-0.2-4.2c0-8.2,1.2-16.2,3.6-24.1c0.4-1.2,1.4-3.8,3.1-7.7c0.5-0.5,1.1-0.8,1.9-0.8s1.5,0.3,2.2,0.8
			c0.7,0.5,1.1,1.2,1.1,1.9c0,0.4-0.1,0.7-0.4,1c-1.4,2.3-2.7,5.2-4,8.9l-2.6,12.1c-0.5,2.6-0.7,5.8-0.3,9.7
			c0.2,0.5,0.5,1.1,1.2,1.9c0.3,0.1,0.8-0.2,1.4-0.8c0.6-0.6,1-0.9,1.3-1c0.9-0.6,2.2-1.8,3.8-3.6c1.6-1.8,3.1-2.9,4.3-3.5l2.7-3.1
			C271.8,233.5,270.4,236.3,268.9,237.3z M270.8,196l-0.4,0.2c-0.2,0.2-0.3,0.5-0.5,1.2c-3.7,0.3-5.7-0.6-5.9-2.7
			c0-1.2,0.4-2,1.3-2.3c0.3-0.1,1.2-0.1,2.8,0c0.4,0,0.9-0.1,1.5-0.3c0.6,0.2,1.3,0.9,2,2.1C271.6,194.8,271.4,195.4,270.8,196z"/>
		<path class="st3" d="M298.7,219.9c-0.5,2.6-1,5.1-1.5,7.6c-0.6,3.2-0.9,5.7-0.9,7.6c0,3.4,0.9,6.4,2.7,9c-0.8,0.2-1.5,0.3-2.1,0.3
			c-1.1,0-2.1-0.3-2.9-1c-1.5-2.6-2.2-5.6-2.2-9.2c0-2.3,0.3-5.1,1-8.5l1.6-8.2l-0.1-0.3c-3,2.3-6.3,6.2-10,11.8
			c-4,5.9-7.1,9.9-9.4,12.1c-1.1,0.5-2.1,0.7-2.9,0.7c-0.5,0-0.9-0.1-1.4-0.2c-1.3-1-1.7-2.7-1-5.1c0.9-3.3,2.1-7.8,3.6-13.3
			c1.4-5.1,2.3-9.6,2.8-13.5c0.5-0.7,1.2-1,2-1s1.5,0.4,2.2,1.3c0.7,0.9,0.9,1.7,0.8,2.4l-5,20.6c0.3-0.9,1.1-1.9,2.3-3.3
			c4-5.5,6.5-9,7.7-10.4c3.1-3.7,6.3-6.5,9.7-8.6c2.6,0,3.8,1.4,3.8,4.1c0,0.5-0.1,1.4-0.3,2.6C298.8,218.5,298.7,219.4,298.7,219.9
			z"/>
		<path class="st3" d="M336.1,179.6c-0.6,1.5-0.3,3.6-0.7,5c-0.8,0.4-1,0.9-0.9,1.6c-0.3,2.3-2.9,3.4-4.2,1
			c-1.5-3.1,2.8-7.6,1.6-11.3c-2.6,1.3-4.8,8.6-5.8,10.9c-2,4.7-5.3,10.3-5.9,15.5c2.9,0.3,8.2-3,9.9,0.6c0.1,0.2,0.2,0.6,0.2,0.8
			c0.7,1.5-3.2,1.6-4.2,1.8c-3,0.8-7.5,1.1-8.3,4.3c-1.7,6.6-3.2,13.2-5.1,19.8c-1.5,5.2-3.5,10.6-4.3,16c0,0.6-0.2,1.2-0.5,1.8
			c-0.5,2.5,1,1.7,1.2,3.7c0,1.7-0.8,4.7-2.7,5.4c-8-1.8,0.2-21.3,1.2-25.4c1.9-7.4,4.2-14.9,5.6-22.3c-3.3-0.8-5.9,1.3-5.5-4
			c2.1-1.2,4.9,0.1,6.9-1.1c1-0.6,1-2.6,1.4-3.7c1.8-4.8,3.5-9.6,5.3-14.4c2.2-5.9,4.3-10.7,9.1-14.9
			C335.6,165.7,337.4,176.4,336.1,179.6z"/>
		<path class="st3" d="M350,241c-2.7,1.2-4.1,2.8-7,1.4c-2.6-1.2-3.8-4.8-3.8-7.7c-3,3.4-5.1,8.5-9.8,10c-7.9,2.5-7.1-8.7-6.6-13.3
			c0.6-5.9,3.1-11.3,6.8-16c2.3-3,8.3-10.8,12.6-9.9c6.6,0,0.2,11.8-3.4,12.9c0.6-2.9,3-6,3-8.9c-3.1-0.5-9.4,10.3-10.7,12.5
			c-2.8,4.7-5.1,9.9-5.2,15.4c1.1,8.3,7.6-0.7,9.9-3.3c3-3.4,4.4-7.9,5.9-12.1c1.4-4,2-12.5,6.4-14c2.9,3.2-1.2,10.3-2.2,13.5
			c-1.3,4.1-2.8,8.4-2.4,12.7c0.2,1.9,0.6,4.1,2.1,5.4c1.9-0.5,3.5-2.7,5.5-2.7C351.4,238.3,351.5,240.3,350,241
			C349.2,241.4,350.9,240.6,350,241z"/>
		<path class="st3" d="M375.4,237.3c-0.5,0.5-1.4,1.2-2.7,2.3c-3,2.5-6.4,3.7-10.3,3.7c-2,0-4-0.4-5.8-1.3c-3-1.9-4.5-5.7-4.5-11.3
			c2.6-12.5,7.2-20.6,13.9-24.4c2.6,0.5,4.3,1.8,5,4.1c0.2,0.5,0.1,0.9-0.2,1.4c-0.3,0.5-0.7,0.7-1.3,0.7c-0.2,0-0.5-0.1-0.9-0.4
			c-0.3-0.3-0.7-0.4-1-0.4c-0.2,0-0.3,0-0.6,0.1c-0.3,0.3-1.3,1.2-2.9,2.7c-1.2,1.1-1.9,2.1-2.2,3.1c-0.9,1.1-1.8,3.1-2.9,5.9
			c-1.1,1.5-1.7,3.3-2,5.6v5.9c0.8,2.6,2.4,4,4.9,4c2,0,6.3-1.7,12.9-5.1l0.1-0.1c0.5-0.5,1.2-0.5,2.2-0.2
			C377.2,235.1,376.6,236.3,375.4,237.3z"/>
		<path class="st3" d="M382.2,231.7l11.2-14.2c4.4-5.5,8.8-9.6,13.3-12.2c1.1-0.6,2.5-0.6,4.2,0c0.7,0.5,1.2,1.4,1.5,2.4
			c0.3,1.3,0.6,2.1,0.8,2.5c-0.5,1.2-0.8,2.7-1.1,4.7c-0.3,2.5-0.5,4.1-0.7,4.8c-1.8,7.5-2.8,11.7-3,12.7c-1,4.8-1.7,9.1-2,12.8
			c-2.4-1.7-3.6-3.8-3.6-6.4c0-0.9,0.1-2.1,0.3-3.6c0.3-1.9,0.5-3.1,0.6-3.6c0.2-1.6,1-5.2,2.6-10.6c1.2-4.3,1.7-7.9,1.5-10.6
			c-0.5-0.2-1.8,0.5-3.6,2.2c-3.3,3-6.7,6.9-10.4,11.8l-9.4,12.7c-0.7,0.5-1.5,1.4-2.3,2.7c-1,1.5-1.7,2.4-2.2,2.9
			c-1.2,0.5-2.1,0.7-2.7,0.5c-0.7-1.3-1-2.7-1-4.2c0-1.3,0.4-3.2,1.2-5.6c0.8-2.4,1.2-4.2,1.3-5.4c2.8-8.3,7-21,12.6-38.1
			c-0.2-1,0.2-2,1.2-3c-0.1-0.9,0.2-1.7,0.8-2.4c0.6-0.7,1.3-1.1,2.2-1.1c0.8,0,1.5,0.5,2.2,1.4c0.2,2.5-0.3,4.9-1.5,7.4
			c-1.9,3.8-3.2,7-3.7,9.7c-0.3,0-0.4,0.2-0.3,0.7c-1.9,5-3.7,10.2-5.4,15.4C385.7,220.3,384.3,225,382.2,231.7z"/>
		<path class="st3" d="M456.1,206.1c8.5-1.1,6.8,8.7,6.8,14.3c-1.6,1.4-2.1,4.4-2.8,6.3c0,5.9-5.9,12.4-6.1,18.3
			c-0.4,6.1-3.4,13.3-5.4,19.1c-2.6,7.5-10.7,24.9-20.2,15.4c14.2,1.1,19.4-26.4,21.2-36.5c-9.8,4.9-15-9.6-13.3-16.7
			c1.1-4.7,4-9.8,7-13.6C446.6,208.6,451,207.4,456.1,206.1C459.1,205.8,454.8,206.5,456.1,206.1z M458.4,211.5l-0.2-0.2
			c0-1.9-10.5,3.8-11.9,5.5c-4,5-8.2,14.2-3.6,20.1c6.7,8.4,10.1-6.1,11.7-10.8c1-2.8,3.3-5.2,4.2-7.9
			C459.1,216.5,458.4,213.4,458.4,211.5z"/>
		<path class="st3" d="M498.6,236.2c-1,0.9-2.2,2-3.6,3.4c-2,1.2-3.7,1.7-5.1,1.7c-2.1,0-3.5-1.4-4.3-4.1c-0.2-0.2-0.3-0.7-0.5-1.5
			c-0.3-1.2-0.6-1.9-0.9-1.9c-0.1,0-2.4,2.5-6.9,7.3c-2.9,2.6-6.6,4.2-11.1,4.8c-2.2-2.5-3.3-5.4-3.3-8.7c0-1.5,0.2-3.4,0.7-5.8
			c0.5-2.8,0.7-4.7,0.8-5.8c1.2-5.8,3.3-11.5,6.5-17c0.9-0.2,1.8,0.1,2.8,0.8c0.2,0.6,0.3,1.2,0.3,1.6c0,0.6-0.3,1.5-0.9,2.6
			c-0.8,1.4-1.2,2.3-1.3,2.6c-1.2,3.7-2.7,8.7-4.4,15.2c-0.2,1.9-0.2,3.6-0.2,5c0,2.3,0.2,3.8,0.6,4.8c2-0.3,3.6-0.9,4.8-1.6
			c0.1-0.1,1.4-1.1,3.8-3c0.5-1.1,2.5-3.8,5.8-8c2.5-3.2,3.9-6.1,4.3-8.6c2.1-5.1,4.1-9.1,6.1-12.1c1.3-0.9,2.2-0.6,2.7,0.7
			c0.2,0.7,0.3,1.4,0.3,2c0,1.2-0.4,2.6-1.3,4.4c-0.9,2-1.5,3.5-1.6,4.3c-2.2,2.8-3.5,6.9-4,12.2c0.1,0.4,0.2,1.4,0.4,3.1
			c0.2,1.3,0.6,2.1,1.3,2.3c1.1-0.2,2.1-0.6,2.9-1.2c1.3-0.9,2.1-1.5,2.4-1.6c0.9-0.9,2.3-2.2,4.1-3.7l1.4,0.9
			C500.8,233.5,499.9,235.1,498.6,236.2z"/>
		<path class="st3" d="M512.4,206.7c1.6,0.2,3.3,0.4,4.9,0.6c1.9,0.4,3.4,1.1,4.5,2.2l0.1,2.2c-1.2,0.1-3.5,0.1-6.7,0
			c-1.9-0.2-3.6,0-5,0.5c-5,9.7-7.5,17.8-7.2,24.4c0,0.9,0.1,1.8,0.4,2.6c0.3,0.8,1.1,1.2,2.4,1.2c0.8,0,1.7-0.2,2.8-0.5
			c0.9-0.1,2.2-0.7,4.1-1.9c1.9-1.2,3.7-1.8,5.4-1.9c-1.4,4.2-5,7-10.7,8.5c-0.7,0.2-1.3,0.2-1.9,0.2c-2.1,0-3.7-0.7-4.9-2
			c-1.4-2.3-2.1-4.9-2.2-8c-0.2-4.3,0.9-9.4,3.3-15.3c0.8-1.4,1.7-3.6,2.7-6.6c-2.7,0.1-5.1,1.4-7,3.8c-1.4,0.1-2.5-1.2-3.3-3.7
			c0.2-0.9,1.1-1.8,2.8-2.8c1.2-1,2.7-1.7,4.7-2.1c1.7-0.2,3.4-0.5,5.1-0.8c3.6-7.2,6.2-13.9,7.6-20.3c0.6-0.8,1.1-1.2,1.8-1.2
			c1-0.1,2,0.7,2.9,2.2c-0.2,5.3-2.3,11.4-6.3,18.4C512.6,206.5,512.5,206.6,512.4,206.7z"/>
		<path class="st3" d="M550.6,231.7l11.2-14.2c4.4-5.5,8.8-9.6,13.3-12.2c1.1-0.6,2.5-0.6,4.2,0c0.7,0.5,1.2,1.4,1.5,2.4
			c0.3,1.3,0.6,2.1,0.8,2.5c-0.5,1.2-0.8,2.7-1,4.7c-0.3,2.5-0.5,4.1-0.7,4.8c-1.8,7.5-2.8,11.7-3,12.7c-1,4.8-1.7,9.1-2,12.8
			c-2.4-1.7-3.6-3.8-3.6-6.4c0-0.9,0.1-2.1,0.4-3.6c0.3-1.9,0.5-3.1,0.6-3.6c0.2-1.6,1-5.2,2.6-10.6c1.2-4.3,1.7-7.9,1.5-10.6
			c-0.5-0.2-1.7,0.5-3.6,2.2c-3.3,3-6.7,6.9-10.4,11.8l-9.4,12.7c-0.7,0.5-1.5,1.4-2.3,2.7c-1,1.5-1.7,2.4-2.2,2.9
			c-1.2,0.5-2.1,0.7-2.7,0.5c-0.7-1.3-1-2.7-1-4.2c0-1.3,0.4-3.2,1.2-5.6s1.2-4.2,1.3-5.4c2.8-8.3,7-21,12.6-38.1
			c-0.1-1,0.2-2,1.2-3c-0.1-0.9,0.2-1.7,0.7-2.4c0.6-0.7,1.3-1.1,2.2-1.1c0.8,0,1.5,0.5,2.2,1.4c0.2,2.5-0.3,4.9-1.5,7.4
			c-1.9,3.8-3.2,7-3.7,9.7c-0.3,0-0.4,0.2-0.3,0.7c-1.9,5-3.7,10.2-5.4,15.4C554,220.3,552.6,225,550.6,231.7z"/>
		<path class="st3" d="M602.3,231.7c-0.6,0.2-1.1,0.8-1.5,1.6c-0.7,1.1-1.1,1.7-1.2,1.9c-1,1.2-2.7,2.6-5,4.3
			c-2.4,2.8-5.6,4.2-9.7,4.2c-1.1,0-2.2-0.2-3.3-0.5c-2.6-1.6-4-4.5-4.3-8.5c0.4-2,1.2-4.4,2.6-7.1c1.1-2.2,2.2-4.4,3.4-6.6
			c0.6-0.6,1.5-1.6,2.5-3c1-1.4,2.1-2.3,3.1-2.8c1.1-1.5,2.6-2.3,4.5-2.6c0.7,0.2,1.9-0.4,3.6-1.7c0.3-0.3,0.9-0.7,1.6-1.2
			c2.1,0,3.6,0.2,4.5,0.7c2.2,1.9,3.3,4.8,3.3,8.5c0,1.9-0.3,3.9-0.8,5.9C605,226.4,603.9,228.6,602.3,231.7z M602.3,216.4
			c-0.2-1.6-0.8-2.8-1.9-3.5l-3.7,1.3l0.9,1.4c-0.1,1.2-0.2,2.3-0.2,3.4c-0.2,1.4-0.7,2.4-1.4,3c-0.4,0.2-0.7,0.2-1,0.2
			c-0.9,0-1.4-1.1-1.5-3.3v-0.4c-0.7,0.2-1.6,0.9-2.8,2.1c-1.2,1.2-2,1.9-2.6,2.2c-2.4,4-3.7,6.4-4,7.1c-1.2,2.7-1.8,5.3-1.5,7.8
			c0.5,0.9,1.1,1.4,2,1.5c8.1-1.5,13.9-7.4,17.6-17.7c0-1.4,0-2.5,0-3.4s0-1.4,0-1.7C602.2,216.2,602.3,216.2,602.3,216.4z
			 M593.1,197.8c-0.2,2.3-1.4,3.5-3.6,3.7c-1.2-0.7-1.8-1.3-1.8-1.7c-0.2-0.9-0.2-1.6-0.2-2.2c0-2.2,0.9-3.3,2.7-3.3
			c0.6,0.2,1.2,0.3,1.8,0.5s1,0.6,1.1,1.3V197.8z M603.1,198c-0.2,1.7-1.1,2.6-2.8,2.8c-0.9-0.5-1.3-1-1.3-1.3
			c-0.2-0.7-0.2-1.3-0.2-1.7c0-1.6,0.7-2.4,2.1-2.4c0.5,0.1,0.9,0.2,1.4,0.3c0.5,0.2,0.7,0.5,0.8,1V198z"/>
		<path class="st3" d="M618.8,216.9c2.5-3.3,5.1-6.3,7.8-9.1s5.7-4.4,9-4.7c1.5-0.2,2.8,0.1,4.1,0.7c0.9,1.2,1.4,2.4,1.5,3.7
			c0,0.7-0.3,2.8-0.9,6.4l-1.6,0.2c-0.2-0.5-0.5-2-0.7-4.7c-0.2-1.5-0.5-2.5-1.1-2.9c-3.8,1.2-7.3,3.6-10.5,7.2
			c-1.5,1.6-2.9,3.1-4.3,4.7c-1.6,1.9-2.7,3.7-3.3,5.4c-0.5,0.1-1,1.1-1.5,3c-0.4,1.4-0.7,2.3-1,2.7c-0.7,1.2-1.8,3.8-3.1,7.8
			c0.1,0.6,0.1,1.9,0,3.8c-0.3,1.6-1.1,2.6-2.3,3c-0.3-0.5-0.4,0-0.7,0.2c-0.4,0.3-0.9-0.2-1.2-0.2c-0.6,0-1.2-0.5-1.6-1.5
			c1.2-4.5,4-14.9,8.2-31.3c-0.3-0.7-0.5-1.3-0.5-1.7c0-0.9,0.5-1.4,1.6-1.6c2.6-0.5,3.9,0,4.1,1.5c0,0.2-0.1,0.6-0.4,1.3
			c-0.2,0.7-0.3,1.7-0.2,2.9c-0.5,0.1-0.8,0.9-0.8,0.9c0,0.2,0,0,0.1,0.6l-0.4,1C618.9,216.5,618.9,216.7,618.8,216.9z"/>
		<path class="st3" d="M656.1,236.2l-0.3,0.4c-0.4,0.2-0.5,0.6-0.5,1.2c-6.2,4.7-11.2,7.1-14.9,7.5c-2.1,0.1-4.2-0.3-6.2-1.2
			c-1.7-0.9-2.9-2.2-3.5-3.7c-0.5-1.2-0.9-3.3-1.2-6.2c2.4-12.3,8.2-21.9,17.5-28.8c0.3-0.1,1.2-0.2,2.7-0.5c1.2-0.2,2.3,0,3.1,0.7
			c0.8,0.7,1.2,1.7,1.2,2.9c-0.2,1-0.3,2-0.3,2.9c-1.3,4.5-5.8,9.7-13.5,15.6c-0.5,0.4-1.7,0.8-3.8,1.2c-1.2,0.2-1.8,0.9-1.8,2.1
			c-1,1.7-1.4,3.3-1.3,4.8c0,0.6,0.3,1.8,0.9,3.5c1.3,1.9,3.5,2.8,6.4,2.8l0.5-0.3c1.2,0,3-0.4,5.1-1.3c2.2-1.3,5.6-3.2,10.4-5.6
			c0.1,0.3,0.1,0.6,0.1,0.8C656.7,235.4,656.5,235.8,656.1,236.2z M649.4,210.8c-0.2-0.2-0.5-0.5-0.8-0.7
			c-4.1,2.6-7.7,6.8-10.7,12.8c0.4,0,0.8-0.2,1.3-0.5c1.9-1.8,3.9-3.6,5.8-5.4C647.2,214.7,648.7,212.6,649.4,210.8z"/>
		<path class="st3" d="M681,219.9c-0.6,2.6-1,5.1-1.5,7.6c-0.6,3.2-0.9,5.7-0.9,7.6c0,3.4,0.9,6.4,2.7,9c-0.8,0.2-1.5,0.3-2.1,0.3
			c-1.1,0-2.1-0.3-2.9-1c-1.5-2.6-2.2-5.6-2.2-9.2c0-2.3,0.4-5.1,1.1-8.5l1.6-8.2l-0.1-0.2c-3,2.3-6.3,6.2-10,11.8
			c-4,5.9-7.1,9.9-9.4,12.1c-1.1,0.5-2.1,0.7-2.9,0.7c-0.5,0-0.9-0.1-1.4-0.2c-1.3-1-1.7-2.7-1-5.1c0.9-3.3,2.1-7.8,3.6-13.3
			c1.4-5.1,2.3-9.6,2.8-13.5c0.5-0.7,1.2-1,2-1s1.5,0.4,2.2,1.3c0.7,0.9,0.9,1.7,0.7,2.4l-5,20.6c0.3-0.9,1.1-1.9,2.3-3.3
			c4-5.5,6.5-9,7.7-10.4c3.1-3.7,6.3-6.5,9.7-8.6c2.6,0,3.8,1.4,3.8,4.1c0,0.5-0.1,1.4-0.3,2.6C681.1,218.5,681,219.4,681,219.9z"/>
	</g>
	<g>
		<path class="st4" d="M198.6,70.2h19.3v76.9h-19.3V139c-3.8,3.6-7.5,6.2-11.3,7.7c-3.8,1.6-7.9,2.4-12.3,2.4
			c-9.9,0-18.5-3.9-25.8-11.6c-7.2-7.7-10.9-17.3-10.9-28.7c0-11.9,3.5-21.6,10.5-29.2c7-7.6,15.5-11.4,25.6-11.4
			c4.6,0,8.9,0.9,13,2.6c4,1.7,7.8,4.4,11.2,7.8V70.2z M178.3,86c-6,0-10.9,2.1-14.9,6.3c-3.9,4.2-5.9,9.6-5.9,16.2
			c0,6.6,2,12.1,6,16.4c4,4.3,9,6.4,14.8,6.4c6.1,0,11.1-2.1,15.1-6.3c4-4.2,6-9.7,6-16.6c0-6.7-2-12.1-6-16.3
			C189.4,88.1,184.4,86,178.3,86z"/>
		<path class="st4" d="M232.2,70.2h19.5v37c0,7.2,0.5,12.2,1.5,15c1,2.8,2.6,5,4.8,6.5c2.2,1.6,4.9,2.3,8.1,2.3s5.9-0.8,8.2-2.3
			c2.2-1.5,3.9-3.8,5-6.7c0.8-2.2,1.2-6.9,1.2-14.2V70.2h19.3v32.6c0,13.4-1.1,22.6-3.2,27.6c-2.6,6-6.4,10.7-11.4,13.9
			c-5,3.2-11.5,4.8-19.2,4.8c-8.4,0-15.3-1.9-20.5-5.7s-8.9-9-11-15.8c-1.5-4.7-2.3-13.1-2.3-25.4L232.2,70.2L232.2,70.2z"/>
		<path class="st4" d="M371,40.5h19.3v106.6H371V139c-3.8,3.6-7.5,6.2-11.3,7.7c-3.8,1.6-7.9,2.4-12.3,2.4
			c-9.9,0-18.5-3.9-25.8-11.6c-7.2-7.7-10.9-17.3-10.9-28.7c0-11.9,3.5-21.6,10.5-29.2c7-7.6,15.5-11.4,25.6-11.4
			c4.6,0,8.9,0.9,13,2.6c4,1.7,7.8,4.4,11.2,7.8L371,40.5L371,40.5z M350.7,86c-6,0-10.9,2.1-14.9,6.3c-3.9,4.2-5.9,9.6-5.9,16.2
			c0,6.6,2,12.1,6,16.4c4,4.3,9,6.4,14.8,6.4c6.1,0,11.1-2.1,15.1-6.3c4-4.2,6-9.7,6-16.6c0-6.7-2-12.1-6-16.3
			C361.9,88.1,356.9,86,350.7,86z"/>
		<path class="st4" d="M416.5,38.6c3.4,0,6.3,1.2,8.7,3.7c2.4,2.5,3.6,5.4,3.6,8.9c0,3.4-1.2,6.4-3.6,8.8c-2.4,2.4-5.3,3.6-8.6,3.6
			c-3.4,0-6.4-1.2-8.8-3.7c-2.4-2.5-3.6-5.5-3.6-9c0-3.4,1.2-6.3,3.6-8.7C410.2,39.8,413.1,38.6,416.5,38.6z M406.8,70.2h19.3v76.9
			h-19.3V70.2z"/>
		<path class="st4" d="M462.3,40.5v38.2c3.5-3.5,7.3-6.1,11.3-7.8c4-1.7,8.4-2.6,13-2.6c10,0,18.6,3.8,25.6,11.4
			c7,7.6,10.5,17.3,10.5,29.2c0,11.4-3.6,21-10.9,28.7c-7.3,7.7-15.8,11.6-25.8,11.6c-4.4,0-8.6-0.8-12.4-2.4
			c-3.8-1.6-7.6-4.2-11.4-7.7v8.1h-19.1V40.5H462.3z M482.6,86c-6.1,0-11.1,2.1-15.1,6.2c-4,4.1-6,9.6-6,16.3c0,6.8,2,12.4,6,16.6
			c4,4.2,9.1,6.3,15.1,6.3c5.9,0,10.8-2.1,14.9-6.4c4-4.3,6-9.8,6-16.4s-2-12-5.9-16.2C493.6,88.1,488.6,86,482.6,86z"/>
		<path class="st4" d="M615.2,114.2h-62c0.9,5.5,3.3,9.8,7.2,13c3.9,3.2,8.8,4.8,14.9,4.8c7.2,0,13.4-2.5,18.6-7.6l16.3,7.6
			c-4.1,5.8-8.9,10-14.6,12.8c-5.7,2.8-12.4,4.1-20.1,4.1c-12.1,0-21.9-3.8-29.5-11.4c-7.6-7.6-11.4-17.1-11.4-28.6
			c0-11.7,3.8-21.5,11.3-29.2c7.6-7.8,17-11.6,28.4-11.6c12.1,0,22,3.9,29.5,11.6c7.6,7.7,11.4,18,11.4,30.7L615.2,114.2z M595.9,99
			c-1.3-4.3-3.8-7.8-7.5-10.5c-3.8-2.7-8.1-4-13.1-4c-5.4,0-10.1,1.5-14.2,4.5c-2.6,1.9-4.9,5.2-7.1,10H595.9z"/>
		<path class="st4" d="M628.9,70.2h19.3v7.9c4.4-3.7,8.3-6.3,11.9-7.7c3.6-1.4,7.2-2.2,10.9-2.2c7.6,0,14.1,2.7,19.4,8
			c4.5,4.5,6.7,11.2,6.7,20.1v50.8h-19.1v-33.7c0-9.2-0.4-15.3-1.2-18.3s-2.3-5.3-4.3-6.9c-2-1.6-4.6-2.4-7.6-2.4
			c-3.9,0-7.2,1.3-10,3.9c-2.8,2.6-4.7,6.2-5.8,10.8c-0.6,2.4-0.9,7.6-0.9,15.6v31h-19.3L628.9,70.2L628.9,70.2z"/>
		<path class="st4" d="M792.4,114.2h-62c0.9,5.5,3.3,9.8,7.2,13c3.9,3.2,8.8,4.8,14.9,4.8c7.2,0,13.4-2.5,18.6-7.6l16.3,7.6
			c-4,5.8-8.9,10-14.6,12.8c-5.6,2.8-12.4,4.1-20.1,4.1c-12.1,0-21.9-3.8-29.5-11.4c-7.6-7.6-11.4-17.1-11.4-28.6
			c0-11.7,3.8-21.5,11.3-29.2c7.6-7.8,17-11.6,28.4-11.6c12.1,0,22,3.9,29.5,11.6c7.6,7.7,11.4,18,11.4,30.7L792.4,114.2z M773.1,99
			c-1.3-4.3-3.8-7.8-7.5-10.5c-3.8-2.7-8.1-4-13.1-4c-5.4,0-10.1,1.5-14.2,4.5c-2.6,1.9-4.9,5.2-7.1,10H773.1z"/>
	</g>
</g>
</svg>
