<?xml version="1.0" encoding="UTF-8"?>
<svg width="178px" height="30px" viewBox="0 0 178 30" version="1.1" xmlns="http://www.w3.org/2000/svg" xmlns:xlink="http://www.w3.org/1999/xlink">
    <!-- Generator: Sketch 54.1 (76490) - https://sketchapp.com -->
    <title>Logo</title>
    <desc>Created with Sketch.</desc>
    <defs>
        <polygon id="path-1" points="1.85185185e-05 0.080962963 13.7966852 0.080962963 13.7966852 29.6296296 1.85185185e-05 29.6296296"></polygon>
        <polygon id="path-3" points="0.176518519 0.0809259259 11.9668889 0.0809259259 11.9668889 12.6191852 0.176518519 12.6191852"></polygon>
        <polygon id="path-5" points="0.176518519 0.0544074074 11.9668889 0.0544074074 11.9668889 12.5925926 0.176518519 12.5925926"></polygon>
    </defs>
    <g id="Symbols" stroke="none" stroke-width="1" fill="none" fill-rule="evenodd">
        <g id="Menu" transform="translate(-30.000000, -25.000000)">
            <g id="Logo" transform="translate(30.000000, 25.000000)">
                <path d="M69.0929074,20.7154074 C69.8742037,19.960963 70.2656852,18.9833704 70.2656852,17.7828148 C70.2656852,16.5831852 69.8742037,15.6055926 69.0929074,14.8502222 C68.3106852,14.0957778 67.4193889,13.7181852 66.4195741,13.7181852 C65.3827222,13.7181852 64.4692037,14.0911481 63.6777222,14.8372593 C62.8862407,15.5824444 62.4910556,16.5646667 62.4910556,17.7828148 C62.4910556,19.0018889 62.8862407,19.9831852 63.6777222,20.7292963 C64.4692037,21.4746667 65.3827222,21.8474444 66.4195741,21.8474444 C67.4193889,21.8474444 68.3106852,21.4698519 69.0929074,20.7154074 M71.6155,12.6407778 C73.0436481,13.9774444 73.7573519,15.6917037 73.7573519,17.7828148 C73.7573519,19.8748519 73.0436481,21.5883704 71.6155,22.925037 C70.1880926,24.2617037 68.4560556,24.930037 66.4195741,24.930037 C64.3460556,24.930037 62.5910556,24.2617037 61.1543889,22.925037 C59.7177222,21.5883704 58.9993889,19.8748519 58.9993889,17.7828148 C58.9993889,15.6917037 59.7177222,13.9774444 61.1543889,12.6407778 C62.5910556,11.3041111 64.3460556,10.6357778 66.4195741,10.6357778 C68.4560556,10.6357778 70.1880926,11.3041111 71.6155,12.6407778" id="Fill-1" fill="#2F2F96"></path>
                <path d="M85.2991481,20.7154074 C86.0813704,19.960963 86.4719259,18.9833704 86.4719259,17.7828148 C86.4719259,16.5831852 86.0813704,15.600963 85.2991481,14.8372593 C84.5169259,14.0735556 83.6171111,13.6913333 82.5987778,13.6913333 C81.4891481,13.6913333 80.5754444,14.0642963 79.8571111,14.8094815 C79.1387778,15.5555926 78.7795185,16.5461481 78.7795185,17.7828148 C78.7795185,19.0196667 79.1387778,20.0063333 79.8571111,20.743 C80.5754444,21.4791111 81.4891481,21.8474444 82.5987778,21.8474444 C83.6171111,21.8474444 84.5169259,21.4698519 85.2991481,20.7154074 L85.2991481,20.7154074 Z M90.0728519,24.5755926 L86.4719259,24.5755926 L86.4719259,23.5118889 C85.2537778,24.4939259 83.7532222,24.9846667 81.9713704,24.9846667 C80.171,24.9846667 78.6065556,24.3024444 77.2791481,22.9389259 C75.9515556,21.5744815 75.2878519,19.8563333 75.2878519,17.7828148 C75.2878519,15.7102222 75.9561852,13.9867037 77.293037,12.6137407 C78.6295185,11.240963 80.1893333,10.5541111 81.9713704,10.5541111 C83.7717407,10.5541111 85.2722963,11.0541111 86.4719259,12.0546667 L86.4719259,10.9633704 L90.0728519,10.9633704 L90.0728519,24.5755926 Z" id="Fill-3" fill="#2F2F96"></path>
                <path d="M121.258796,12.1500556 C122.259352,13.2137593 122.759352,14.5911667 122.759352,16.2830185 L122.759352,24.5756111 L119.158426,24.5756111 L119.158426,17.0467222 C119.158426,16.0822778 118.908426,15.3095 118.408611,14.7280185 C117.908611,14.1457963 117.240278,13.8552407 116.403611,13.8552407 C114.148426,13.8552407 113.021019,15.4185741 113.021019,18.546537 L113.021019,24.5756111 L109.420093,24.5756111 L109.420093,4.9345 L113.021019,4.9345 L113.021019,12.1907963 C114.111574,11.0995 115.539907,10.5541296 117.303426,10.5541296 C118.940093,10.5541296 120.258981,11.0863519 121.258796,12.1500556" id="Fill-5" fill="#2F2F96"></path>
                <polygon id="Fill-7" fill="#2F2F96" points="142.294222 24.5755556 138.584963 24.5755556 138.584963 16.5222222 129.855704 16.5222222 129.855704 24.5755556 126.145519 24.5755556 126.145519 4.93444444 129.855704 4.93444444 129.855704 13.1666667 138.584963 13.1666667 138.584963 4.93444444 142.294222 4.93444444"></polygon>
                <path d="M158.992722,24.5755556 L155.391796,24.5755556 L155.391796,23.347963 C154.3005,24.4394444 152.873093,24.9846296 151.108833,24.9846296 C149.472167,24.9846296 148.153833,24.4524074 147.154019,23.3888889 C146.153463,22.3251852 145.653648,20.9475926 145.653648,19.2564815 L145.653648,10.9633333 L149.254574,10.9633333 L149.254574,18.4918519 C149.254574,19.4562963 149.504389,20.2292593 150.004389,20.8107407 C150.504204,21.392963 151.172537,21.6837037 152.009389,21.6837037 C154.264389,21.6837037 155.391796,20.12 155.391796,16.9922222 L155.391796,10.9633333 L158.992722,10.9633333 L158.992722,24.5755556 Z" id="Fill-9" fill="#2F2F96"></path>
                <path d="M172.921759,20.7430741 C173.640093,20.0062222 173.999167,19.0195556 173.999167,17.7828889 C173.999167,16.5462222 173.640093,15.5554815 172.921759,14.8095556 C172.203426,14.0643704 171.289722,13.6912222 170.179907,13.6912222 C169.161574,13.6912222 168.261759,14.0734444 167.479537,14.8371481 C166.6975,15.6008519 166.306759,16.5830741 166.306759,17.7828889 C166.306759,18.9834444 166.6975,19.9608519 167.479537,20.7154815 C168.261759,21.4699259 169.161574,21.8475185 170.179907,21.8475185 C171.289722,21.8475185 172.203426,21.4791852 172.921759,20.7430741 M175.485833,12.6138148 C176.8225,13.9865926 177.490833,15.7101111 177.490833,17.7828889 C177.490833,19.8564074 176.82713,21.5743704 175.499722,22.9388148 C174.172315,24.3025185 172.60787,24.9845556 170.8075,24.9845556 C169.025463,24.9845556 167.524907,24.494 166.306759,23.5117778 L166.306759,24.5754815 L162.705833,24.5754815 L162.705833,4.93437037 L166.306759,4.93437037 L166.306759,12.0547407 C167.506574,11.0541852 169.006944,10.5541852 170.8075,10.5541852 C172.589537,10.5541852 174.149167,11.2408519 175.485833,12.6138148" id="Fill-11" fill="#2F2F96"></path>
                <g id="Group-15" transform="translate(0.000000, 0.104259)">
                    <mask id="mask-2" fill="white">
                        <use xlink:href="#path-1"></use>
                    </mask>
                    <g id="Clip-14"></g>
                    <path d="M1.85185185e-05,14.8552222 C1.85185185e-05,22.6946667 6.09038889,29.105963 13.7966852,29.6296667 L13.7966852,0.080962963 C6.09038889,0.604666667 1.85185185e-05,7.01596296 1.85185185e-05,14.8552222" id="Fill-13" fill="#FC5739" mask="url(#mask-2)"></path>
                </g>
                <g id="Group-18" transform="translate(17.592593, 0.104259)">
                    <mask id="mask-4" fill="white">
                        <use xlink:href="#path-3"></use>
                    </mask>
                    <g id="Clip-17"></g>
                    <path d="M0.176518519,9.80603704 L0.176518519,0.0808518519 C6.48225926,1.35714815 11.3348519,6.13659259 11.9668889,12.6191852 L2.92633333,12.5706667 C1.40522222,12.5625185 0.176518519,11.3271481 0.176518519,9.80603704" id="Fill-16" fill="#FC5739" mask="url(#mask-4)"></path>
                </g>
                <g id="Group-21" transform="translate(17.592593, 17.141296)">
                    <mask id="mask-6" fill="white">
                        <use xlink:href="#path-5"></use>
                    </mask>
                    <g id="Clip-20"></g>
                    <path d="M0.176518519,2.86755556 L0.176518519,12.5927407 C6.48225926,11.3164444 11.3348519,6.537 11.9668889,0.0544074074 L2.92633333,0.102925926 C1.40522222,0.111074074 0.176518519,1.34644444 0.176518519,2.86755556" id="Fill-19" fill="#FC5739" mask="url(#mask-6)"></path>
                </g>
                <path d="M53.2723148,18.0251667 C52.9076852,19.0068333 52.3702778,19.7812778 51.6575,20.3459074 C50.6939815,21.1096111 49.539537,21.4920185 48.1936111,21.4920185 C46.5569444,21.4920185 45.1702778,20.9096111 44.0336111,19.7459074 C42.8969444,18.5816481 42.3284259,17.135537 42.3284259,15.4083148 C42.3284259,13.6810926 42.8923148,12.2396111 44.0197222,11.0846111 C45.1471296,9.93016667 46.5386111,9.35238889 48.1936111,9.35238889 C49.5210185,9.35238889 50.6708333,9.73405556 51.644537,10.4985 C52.360463,11.0603519 52.8997222,11.8259074 53.2662037,12.791463 L57.1680556,12.791463 C56.7013889,10.6790556 55.6580556,8.99887037 54.0310185,7.75664815 C52.3758333,6.49294444 50.4300926,5.86090741 48.1936111,5.86090741 C45.5017593,5.86090741 43.2284259,6.78368519 41.3739815,8.62961111 C39.5189815,10.4753519 38.5915741,12.7349815 38.5915741,15.4083148 C38.5915741,18.0999815 39.5189815,20.3635 41.3739815,22.2009074 C43.2284259,24.0375741 45.5017593,24.9557222 48.1936111,24.9557222 C50.4486111,24.9557222 52.4036111,24.310537 54.0586111,23.0192407 C55.6189815,21.801463 56.6310185,20.1331296 57.1075,18.0251667 L53.2723148,18.0251667 Z" id="Fill-22" fill="#2F2F96"></path>
                <path d="M103.007926,20.0184444 C102.354778,21.104 101.348481,21.6547407 99.9788519,21.6547407 C98.8512593,21.6547407 97.9375556,21.2954815 97.2377407,20.5773333 C96.5371852,19.859 96.1871852,18.9184444 96.1871852,17.7538148 C96.1871852,16.5902963 96.5371852,15.6441852 97.2377407,14.9175185 C97.9375556,14.1899259 98.8512593,13.8262222 99.9788519,13.8262222 C101.362926,13.8262222 102.342,14.3762222 102.925519,15.4623333 L106.770333,15.4623333 C106.309778,13.9921481 105.470889,12.804 104.248111,11.9027037 C103.002,10.9843704 101.579407,10.5252963 99.9788519,10.5252963 C97.9423704,10.5252963 96.2186667,11.2027037 94.8097778,12.5571481 C93.399963,13.9123333 92.6955185,15.6441852 92.6955185,17.7538148 C92.6955185,19.8636296 93.399963,21.5917778 94.8097778,22.936963 C96.2186667,24.2827037 97.9423704,24.9556667 99.9788519,24.9556667 C101.615333,24.9556667 103.065889,24.491963 104.329593,23.5643704 C105.548111,22.6704815 106.35237,21.4865926 106.750704,20.0184444 L103.007926,20.0184444 Z" id="Fill-24" fill="#2F2F96"></path>
            </g>
        </g>
    </g>
</svg>