<svg xmlns="http://www.w3.org/2000/svg" width="469" height="258" viewBox="0 0 469 258">
  <g fill="#001A3E" transform="translate(59 60)">
    <path d="M45.1,136.1 L62.9,116.1 C63.2,115.8 63,115.3 62.5,115.3 L42.9,115.3 C42.8,115.3 42.6,115.2 42.5,115.1 L25.9,96.5 C25.8,96.3 25.7,96.1 25.8,95.9 L53.6,48.2 C53.7,48 53.7,47.8 53.6,47.7 L42.1,27.9 C41.9,27.6 41.4,27.6 41.2,27.9 L0.1,98.5 C-1.41553436e-15,98.7 -1.41553436e-15,98.9 0.1,99.1 L33.1,136.2 C33.2,136.3 33.3,136.4 33.5,136.4 L44.7,136.4 C44.8,136.3 45,136.2 45.1,136.1 Z"/>
    <path d="M57.3.3L45.7 20.1C45.6 20.3 45.6 20.5 45.7 20.6L57.7 41.2 89.5 95.8C89.6 96 89.6 96.2 89.4 96.4L72.6 115.2 54.7 135.4C54.4 135.7 54.6 136.2 55.1 136.2L81.9 136.2C82 136.2 82.2 136.1 82.3 136L115.3 98.9C115.4 98.7 115.5 98.5 115.4 98.3L58.1.3C58-.1 57.5-.1 57.3.3zM164.8 108.5L164.8 44.9C164.8 44.4 164.2 44.2 163.9 44.6L144.5 66.3C144.4 66.4 144.4 66.5 144.4 66.6L144.4 129C144.4 129.3 144.6 129.5 144.9 129.5L164.8 129.5 193.9 129.5C194.2 129.5 194.4 129.3 194.4 129L194.4 109.5C194.4 109.2 194.2 109 193.9 109L165.3 109C165.1 109 164.8 108.8 164.8 108.5zM222.6 129L222.6 69.4C222.6 68.9 222 68.7 221.7 69.1L202.3 90.8C202.2 90.9 202.2 91 202.2 91.1L202.2 129C202.2 129.3 202.4 129.5 202.7 129.5L222.1 129.5C222.4 129.5 222.6 129.2 222.6 129zM327.6 99.1C327.5 98.9 327.5 98.7 327.6 98.5L347.5 68.9C347.7 68.6 347.5 68.1 347.1 68.1L324.8 68.1C324.6 68.1 324.5 68.2 324.4 68.3L309.7 92.1C309.4 92.5 308.8 92.3 308.8 91.8L308.8 44.8C308.8 44.3 308.2 44.1 307.9 44.5L288.5 66.2C288.4 66.3 288.4 66.4 288.4 66.5L288.4 129C288.4 129.3 288.6 129.5 288.9 129.5L308.3 129.5C308.6 129.5 308.8 129.3 308.8 129L308.8 109 308.8 105.1C308.8 104.6 309.4 104.4 309.7 104.8L326 129.3C326.1 129.4 326.3 129.5 326.4 129.5L348 129.5C348.4 129.5 348.6 129 348.4 128.7L327.6 99.1zM255.5 130.7C268.1 130.7 281.5 125.4 281.5 110.6 281.5 95.8 269.1 93 260 90.9 255 89.7 251 88.8 251 86.1 251 84 252.9 82.7 256 82.7 259.2 82.7 261.8 84.3 263.6 87.4 263.7 87.6 264 87.7 264.2 87.6L279.6 80.7C279.9 80.6 280 80.3 279.8 80 275.1 71.4 266.9 67 255.5 67 239 66.9 231.5 77 231.5 87 231.5 100.7 243.7 103.8 252.6 106.1 257.8 107.4 261.5 108.4 261.5 111 261.5 112.7 260.5 114.8 255.5 114.8 250.9 114.8 247.6 112.8 245.9 108.8 245.8 108.5 245.5 108.4 245.2 108.5L229.3 116.5C229 116.6 228.9 116.9 229.1 117.2 233.6 126.3 242.3 130.7 255.5 130.7z"/>
  </g>
</svg>
