<svg height="512pt" viewBox="0 -82 512 512" width="512pt" xmlns="http://www.w3.org/2000/svg">
    <path d="m48.523438 347.5625-23.285157-30.941406 51.511719-128 122.589844-63.824219 56.660156-11.332031 56.660156 11.332031 122.589844 63.824219 51.511719 128-23.285157 30.941406zm0 0" fill="#eceaec"/>
    <path d="m463.476562 347.574219v-.007813c0-55.414062-21.582031-107.519531-60.769531-146.707031s-91.292969-60.761719-146.707031-60.761719-107.519531 21.570313-146.707031 60.761719c-39.1875 39.1875-60.769531 91.289063-60.769531 146.703125v.011719h-48.523438c0-141.386719 114.613281-256 256-256s256 114.613281 256 256zm0 0" fill="#61caff"/>
    <path d="m463.476562 347.5625v.011719h-48.523437v-.011719c0-42.457031-16.535156-82.371094-46.554687-112.386719-30.023438-30.027343-69.941407-46.554687-112.398438-46.554687s-82.375 16.527344-112.398438 46.554687c-30.019531 30.015625-46.554687 69.929688-46.554687 112.386719v.011719h-48.523437v-.011719c0-55.414062 21.582031-107.515625 60.769531-146.703125 39.1875-39.191406 91.292969-60.761719 146.707031-60.761719s107.519531 21.570313 146.707031 60.761719c39.1875 39.1875 60.769531 91.289063 60.769531 146.703125zm0 0" fill="#e894e4"/>
    <path d="m414.953125 347.5625v.011719h-48.523437v-.011719c0-29.492188-11.492188-57.21875-32.347657-78.082031-20.851562-20.855469-48.589843-32.335938-78.082031-32.335938s-57.230469 11.480469-78.082031 32.335938c-20.855469 20.863281-32.347657 48.589843-32.347657 78.082031v.011719h-48.523437v-.011719c0-42.457031 16.535156-82.371094 46.554687-112.386719 30.027344-30.027343 69.941407-46.554687 112.398438-46.554687s82.375 16.527344 112.402344 46.554687c30.015625 30.015625 46.550781 69.929688 46.550781 112.386719zm0 0" fill="#ffff7f"/>
    <path d="m366.429688 347.5625v.011719h-48.523438v-.011719c0-16.527344-6.445312-32.074219-18.140625-43.765625-11.683594-11.695313-27.230469-18.128906-43.765625-18.128906-16.539062 0-32.085938 6.433593-43.777344 18.128906-11.683594 11.691406-18.128906 27.238281-18.128906 43.765625v.011719h-48.523438v-.011719c0-29.492188 11.488282-57.21875 32.34375-78.082031 20.855469-20.855469 48.59375-32.335938 78.085938-32.335938s57.226562 11.480469 78.082031 32.335938c20.859375 20.863281 32.347657 48.589843 32.347657 78.082031zm0 0" fill="#ffc261"/>
    <path d="m317.90625 347.5625v.011719h-123.8125v-.011719c0-16.527344 6.445312-32.074219 18.128906-43.765625 11.695313-11.695313 27.238282-18.128906 43.777344-18.128906 16.535156 0 32.082031 6.433593 43.765625 18.128906 11.695313 11.691406 18.140625 27.238281 18.140625 43.765625zm0 0" fill="#bde965"/>
    <path d="m69.019531 113.921875c-2.589843 12.289063-11.46875 21.347656-24.058593 23.949219-4.390626.910156-7.523438 4.800781-7.523438 9.386718v.503907c0 4.5 3.160156 8.378906 7.566406 9.296875 12.5625 2.613281 21.421875 11.660156 24.011719 23.929687.933594 4.414063 4.679687 7.65625 9.308594 7.65625h.601562c4.484375 0 8.378907-3.132812 9.285157-7.523437 2.605468-12.582032 11.65625-21.460938 23.9375-24.054688 4.414062-.929687 7.660156-4.679687 7.660156-9.1875v-.835937c0-4.511719-3.246094-8.257813-7.660156-9.1875-12.28125-2.59375-21.335938-11.472657-23.9375-24.054688-.910157-4.394531-4.800782-7.527343-9.402344-7.527343h-.601563c-4.507812 0-8.257812 3.238281-9.1875 7.648437zm0 0" fill="#ffff7f"/>
    <path d="m343.757812 6.875c-2.328124 11.042969-10.308593 19.183594-21.621093 21.523438-3.945313.816406-6.761719 4.316406-6.761719 8.4375v.453124c0 4.042969 2.839844 7.53125 6.796875 8.355469 11.292969 2.347657 19.257813 10.480469 21.585937 21.507813.835938 3.964844 4.203126 6.882812 8.363282 6.882812h.539062c4.03125 0 7.53125-2.816406 8.347656-6.761718 2.339844-11.3125 10.476563-19.292969 21.515626-21.621094 3.96875-.839844 6.886718-4.207032 6.886718-8.261719v-.75c0-4.050781-2.917968-7.421875-6.886718-8.257813-11.039063-2.328124-19.175782-10.308593-21.515626-21.621093-.816406-3.945313-4.316406-6.761719-8.449218-6.761719h-.542969c-4.050781 0-7.421875 2.910156-8.257813 6.875zm0 0" fill="#ffff7f"/>
    <path d="m410.199219 83.976562c-3.011719 14.285157-13.332031 24.816407-27.96875 27.84375-5.105469 1.054688-8.746094 5.582032-8.746094 10.910157v.589843c0 5.230469 3.671875 9.738282 8.792969 10.804688 14.605468 3.039062 24.90625 13.558594 27.917968 27.820312 1.082032 5.132813 5.441407 8.90625 10.820313 8.90625h.699219c5.214844 0 9.742187-3.644531 10.796875-8.75 3.027343-14.628906 13.550781-24.949218 27.832031-27.964843 5.128906-1.082031 8.902344-5.441407 8.902344-10.683594v-.96875c0-5.242187-3.773438-9.601563-8.902344-10.683594-14.28125-3.011719-24.804688-13.335937-27.832031-27.964843-1.054688-5.105469-5.582031-8.75-10.929688-8.75h-.703125c-5.238281 0-9.597656 3.765624-10.679687 8.890624zm0 0" fill="#ffe176"/>
</svg>
